<?xml version="1.0" encoding="UTF-8"?>
<svg width="25px" height="26px" viewBox="0 0 25 26" version="1.1" xmlns="http://www.w3.org/2000/svg" xmlns:xlink="http://www.w3.org/1999/xlink">
    <!-- Generator: Sketch 57 (83077) - https://sketch.com -->
    <title>分组 copy 2</title>
    <desc>Created with Sketch.</desc>
    <g id="0830改版页面" stroke="none" stroke-width="1" fill="none" fill-rule="evenodd">
        <g id="推广平台添加-copy-2" transform="translate(-314.000000, -204.000000)">
            <g id="分组-copy-2" transform="translate(314.000000, 204.500000)">
                <rect id="矩形-copy-6" fill="#008BFD" x="0" y="0" width="25" height="25" rx="3"></rect>
                <path d="M14.964209,5.99506229 L15.807959,5.99506229 C16.2221726,5.99506229 16.557959,6.33084873 16.557959,6.74506229 L16.557959,19.3075623 C16.557959,19.7217759 16.2221726,20.0575623 15.807959,20.0575623 L14.964209,20.0575623 C14.5499955,20.0575623 14.214209,19.7217759 14.214209,19.3075623 L14.214209,6.74506229 C14.214209,6.33084873 14.5499955,5.99506229 14.964209,5.99506229 Z" id="矩形" fill="#FFFFFF" transform="translate(15.386084, 13.026312) rotate(-315.000000) translate(-15.386084, -13.026312) "></path>
                <path d="M8.33508295,9.99609381 L9.17883295,9.99609381 C9.59304651,9.99609381 9.92883295,10.3318802 9.92883295,10.7460938 L9.92883295,18.6210938 C9.92883295,19.0353074 9.59304651,19.3710938 9.17883295,19.3710938 L8.33508295,19.3710938 C7.92086938,19.3710938 7.58508295,19.0353074 7.58508295,18.6210938 L7.58508295,10.7460938 C7.58508295,10.3318802 7.92086938,9.99609381 8.33508295,9.99609381 Z" id="矩形-copy-7" fill="#FFFFFF" transform="translate(8.756958, 14.683594) rotate(-45.000000) translate(-8.756958, -14.683594) "></path>
            </g>
        </g>
    </g>
</svg>