<?xml version="1.0" encoding="UTF-8"?>
<svg width="20px" height="20px" viewBox="0 0 20 20" version="1.1" xmlns="http://www.w3.org/2000/svg" xmlns:xlink="http://www.w3.org/1999/xlink">
    <!-- Generator: Sketch 55.2 (78181) - https://sketchapp.com -->
    <title>筛选</title>
    <desc>Created with Sketch.</desc>
    <g id="店铺商品" stroke="none" stroke-width="1" fill="none" fill-rule="evenodd" stroke-linejoin="round">
        <g id="商品/服务" transform="translate(-337.000000, -32.000000)" stroke="#FFFFFF" stroke-width="2">
            <g id="筛选" transform="translate(337.000000, 32.000000)">
                <path d="M11.8786797,10 L11.8786797,16.3554403 C11.8786797,17.0390415 11.5295294,17.675291 10.9529045,18.0424617 L9.4157921,19.0212308 C8.94993403,19.3178698 8.33180802,19.1806907 8.035169,18.7148326 C7.93296749,18.5543298 7.87867966,18.3679997 7.87867966,18.1777202 L7.87867966,10 L3.43933983,5.56066017 C2.85355339,4.97487373 2.85355339,4.02512627 3.43933983,3.43933983 C3.7206444,3.15803526 4.10217527,3 4.5,3 L15.2573593,3 C16.0857864,3 16.7573593,3.67157288 16.7573593,4.5 C16.7573593,4.89782473 16.5993241,5.2793556 16.3180195,5.56066017 L11.8786797,10 Z" id="形状结合"></path>
            </g>
        </g>
    </g>
</svg>