<?xml version="1.0" encoding="UTF-8"?>
<svg width="20px" height="20px" viewBox="0 0 20 20" version="1.1" xmlns="http://www.w3.org/2000/svg" xmlns:xlink="http://www.w3.org/1999/xlink">
    <!-- Generator: Sketch 57 (83077) - https://sketch.com -->
    <title>矩形</title>
    <desc>Created with Sketch.</desc>
    <defs>
        <linearGradient x1="0%" y1="16.9108744%" x2="100%" y2="59.3660474%" id="linearGradient-1">
            <stop stop-color="#09B9FE" offset="0%"></stop>
            <stop stop-color="#096DE3" offset="100%"></stop>
        </linearGradient>
    </defs>
    <g id="0830改版页面" stroke="none" stroke-width="1" fill="none" fill-rule="evenodd">
        <g id="首页一屏备份-3" transform="translate(-20.000000, -306.000000)">
            <g id="编组-11" transform="translate(20.000000, 306.000000)">
                <g id="通知">
                    <rect id="矩形" fill="#666666" fill-rule="nonzero" opacity="0" x="0" y="0" width="20" height="20"></rect>
                    <path d="M1.25,6.4675 L3.75,6.4675 L7.925,2.7975 C8.29393719,2.47338197 8.81847877,2.3953219 9.26580661,2.5979668 C9.71313444,2.8006117 10.0003608,3.24641241 10,3.7375 L10,16.2625 C10.0002485,16.7496504 9.71745993,17.1925661 9.27543816,17.39734 C8.83341638,17.6021139 8.31269732,17.5314364 7.94125,17.21625 L3.75,13.66125 L1.25,13.66125 C0.559644063,13.66125 0,13.1016059 0,12.41125 L0,7.7175 C0,7.02714406 0.559644063,6.4675 1.25,6.4675 Z M1.875,11.78625 L3.75,11.78625 C4.19375,11.78625 4.625,11.945 4.9625,12.23125 L8.125,14.9125 L8.125,5.11875 L4.9875,7.875 C4.64549755,8.1760054 4.20559832,8.34218956 3.75,8.3425 L1.875,8.3425 L1.875,11.78625 L1.875,11.78625 Z M13.79125,15.18875 C13.4218628,15.5329486 12.8462378,15.5227923 12.4892228,15.1657772 C12.1322077,14.8087622 12.1220514,14.2331372 12.46625,13.86375 C14.5405706,11.789148 14.5405706,8.425852 12.46625,6.35125 C12.229115,6.11456155 12.1362649,5.76934236 12.2226756,5.44563317 C12.3090863,5.12192398 12.5616299,4.86890391 12.8851756,4.78188317 C13.2087214,4.69486243 13.554115,4.78706155 13.79125,5.02375 C15.1392717,6.37168154 15.89659,8.19992316 15.89659,10.10625 C15.89659,12.0125768 15.1392717,13.8408185 13.79125,15.18875 L13.79125,15.18875 Z M16.44375,17.84 C16.0760629,18.1954638 15.4913331,18.1906602 15.1295355,17.8292037 C14.767738,17.4677472 14.7623831,16.8830221 15.1175,16.515 C18.6565861,12.9758805 18.6565861,7.23786948 15.1175,3.69875 C14.7733014,3.32936281 14.7834577,2.75373785 15.1404728,2.39672275 C15.4974878,2.03970766 16.0731128,2.02955142 16.4425,2.37375 C20.712719,6.64491368 20.712719,13.5688363 16.4425,17.84 L16.44375,17.84 Z" id="形状" fill="url(#linearGradient-1)"></path>
                </g>
            </g>
        </g>
    </g>
</svg>