<?xml version="1.0" encoding="UTF-8"?>
<svg width="20px" height="20px" viewBox="0 0 20 20" version="1.1" xmlns="http://www.w3.org/2000/svg" xmlns:xlink="http://www.w3.org/1999/xlink">
    <!-- Generator: Sketch 55.2 (78181) - https://sketchapp.com -->
    <title>矩形</title>
    <desc>Created with Sketch.</desc>
    <g id="草稿箱" stroke="none" stroke-width="1" fill="none" fill-rule="evenodd">
        <g id="首页-带草稿箱" transform="translate(-290.000000, -26.000000)" stroke="#FFFFFF" stroke-width="2">
            <g id="编组-5" transform="translate(290.000000, 26.000000)">
                <g id="编组-4" transform="translate(1.000000, 1.000000)">
                    <path d="M6.6232685,7 L6.62208946,7.0000007 C6.82093841,6.99976624 6.99972884,6.81318119 7,6.56324788 L7.00000059,1.4378347 C6.99972884,1.18681881 6.82093841,1.00023376 6.6232685,1 L1.37791054,0.999999305 C1.17906159,1.00023376 1.00027116,1.18681881 1,1.43675212 L0.999999414,6.5621653 C1.00027116,6.81318119 1.17906159,6.99976624 1.3767315,7 L6.6232685,7 Z" id="路径备份"></path>
                    <path d="M6.6232685,17 L6.62208946,17.0000007 C6.82093841,16.9997662 6.99972884,16.8131812 7,16.5632479 L7.00000059,11.4378347 C6.99972884,11.1868188 6.82093841,11.0002338 6.6232685,11 L1.37791054,10.9999993 C1.17906159,11.0002338 1.00027116,11.1868188 1,11.4367521 L0.999999414,16.5621653 C1.00027116,16.8131812 1.17906159,16.9997662 1.3767315,17 L6.6232685,17 Z" id="路径备份-2"></path>
                    <path d="M16.6232685,7 L16.6220895,7.0000007 C16.8209384,6.99976624 16.9997288,6.81318119 17,6.56324788 L17.0000006,1.4378347 C16.9997288,1.18681881 16.8209384,1.00023376 16.6232685,1 L11.3779105,0.999999305 C11.1790616,1.00023376 11.0002712,1.18681881 11,1.43675212 L10.9999994,6.5621653 C11.0002712,6.81318119 11.1790616,6.99976624 11.3767315,7 L16.6232685,7 Z" id="路径备份-3"></path>
                    <path d="M16,16 L16,17" id="直线-4备份-6" stroke-linecap="round"></path>
                    <path d="M12,14.5 L12,17" id="直线-4备份-7" stroke-linecap="round"></path>
                    <path d="M16,11 L16,13" id="直线-4备份-4" stroke-linecap="round"></path>
                    <path d="M12,11 L12,11.5" id="直线-4备份-5" stroke-linecap="round"></path>
                </g>
            </g>
        </g>
    </g>
</svg>