<?xml version="1.0" encoding="UTF-8"?>
<svg width="30px" height="30px" viewBox="0 0 30 30" version="1.1" xmlns="http://www.w3.org/2000/svg" xmlns:xlink="http://www.w3.org/1999/xlink">
    <!-- Generator: Sketch 57 (83077) - https://sketch.com -->
    <title>收款</title>
    <desc>Created with Sketch.</desc>
    <g id="0830改版页面" stroke="none" stroke-width="1" fill="none" fill-rule="evenodd">
        <g id="首页一屏备份-3" transform="translate(-64.000000, -236.000000)" stroke="#FFFFFF" stroke-width="2">
            <g id="编组-4" transform="translate(64.000000, 236.000000)">
                <g id="编组-10">
                    <g id="收款·白">
                        <g id="编组-13备份-2">
                            <g transform="translate(1.500000, 1.500000)">
                                <path d="M10.5558342,11.75 L10.5546551,11.7500007 C11.2047493,11.7492342 11.749219,11.1810275 11.75,10.4601763 L11.7500006,2.29090627 C11.749219,1.56897252 11.2047493,1.00076579 10.5558342,1 L2.19534487,0.999999305 C1.54525074,1.00076579 1.00078097,1.56897252 1,2.28982368 L0.999999414,10.4590937 C1.00078097,11.1810275 1.54525074,11.7492342 2.19416583,11.75 L10.5558342,11.75 Z" id="路径备份"></path>
                                <path d="M10.5558342,26 L10.5546551,26.0000007 C11.2047493,25.9992342 11.749219,25.4310275 11.75,24.7101763 L11.7500006,16.5409063 C11.749219,15.8189725 11.2047493,15.2507658 10.5558342,15.25 L2.19534487,15.2499993 C1.54525074,15.2507658 1.00078097,15.8189725 1,16.5398237 L0.999999414,24.7090937 C1.00078097,25.4310275 1.54525074,25.9992342 2.19416583,26 L10.5558342,26 Z" id="路径备份-2"></path>
                                <path d="M24.8058342,11.7884615 L24.8046551,11.7884622 C25.4547493,11.7876957 25.999219,11.219489 26,10.4986379 L26.0000006,2.32936781 C25.999219,1.60743405 25.4547493,1.03922733 24.8058342,1.03846154 L16.4453449,1.03846084 C15.7952507,1.03922733 15.250781,1.60743405 15.25,2.32828522 L15.2499994,10.4975553 C15.250781,11.219489 15.7952507,11.7876957 16.4441658,11.7884615 L24.8058342,11.7884615 Z" id="路径备份-3"></path>
                                <path d="M15,22.875 L26.25,22.875" id="直线-4" stroke-linecap="round"></path>
                                <path d="M15,19.125 L26.25,19.125" id="直线-4备份" stroke-linecap="round"></path>
                                <path d="M20.625,18.5625 L20.625,26.4375" id="直线-5" stroke-linecap="round"></path>
                                <path d="M16.5,15 L20.625,18.75" id="直线-5备份" stroke-linecap="round"></path>
                                <path d="M20.625,15 L24.75,18.75" id="直线-5备份-2" stroke-linecap="round" transform="translate(22.687500, 16.875000) scale(-1, 1) translate(-22.687500, -16.875000) "></path>
                            </g>
                        </g>
                    </g>
                </g>
            </g>
        </g>
    </g>
</svg>