<?xml version="1.0" encoding="UTF-8"?>
<svg width="20px" height="20px" viewBox="0 0 20 20" version="1.1" xmlns="http://www.w3.org/2000/svg" xmlns:xlink="http://www.w3.org/1999/xlink">
    <!-- Generator: Sketch 53.1 (72631) - https://sketchapp.com -->
    <title>分组 2</title>
    <desc>Created with Sketch.</desc>
    <g id="登录" stroke="none" stroke-width="1" fill="none" fill-rule="evenodd">
        <g id="登陆页-copy-2" transform="translate(-48.000000, -196.000000)">
            <g id="分组-9" transform="translate(18.000000, 181.000000)">
                <g id="分组-7" transform="translate(30.000000, 15.000000)">
                    <g id="分组-2">
                        <rect id="矩形-copy-2" fill="#FF7239" x="0" y="0" width="20" height="20" rx="4"></rect>
                        <g id="shop" transform="translate(2.000000, 2.000000)" fill-rule="nonzero">
                            <rect id="矩形" fill="#000000" opacity="0" x="0" y="0" width="16" height="16"></rect>
                            <path d="M13.78125,4.2515625 L13.78125,2.25 C13.78125,1.9734375 13.5578125,1.75 13.28125,1.75 L2.71875,1.75 C2.4421875,1.75 2.21875,1.9734375 2.21875,2.25 L2.21875,4.2515625 C1.9578125,4.2671875 1.75,4.484375 1.75,4.75 L1.75,6.8078125 C1.75,7.1890625 1.825,7.559375 1.975,7.9078125 C2.0421875,8.0671875 2.125,8.2171875 2.21875,8.359375 L2.21875,13.75 C2.21875,14.025 2.4421875,14.25 2.71875,14.25 L13.28125,14.25 C13.5578125,14.25 13.78125,14.0265625 13.78125,13.75 L13.78125,8.359375 C13.8765625,8.2171875 13.9578125,8.065625 14.025,7.9078125 C14.1734375,7.559375 14.25,7.1890625 14.25,6.8078125 L14.25,4.75 C14.25,4.484375 14.0421875,4.2671875 13.78125,4.2515625 Z M3.34375,2.875 L12.65625,2.875 L12.65625,4.25 L3.34375,4.25 L3.34375,2.875 Z M9,13.1265625 L7,13.1265625 L7,11.5 L9,11.5 L9,13.1265625 Z M12.65625,13.1265625 L10,13.1265625 L10,11 C10,10.7234375 9.7765625,10.5 9.5,10.5 L6.5,10.5 C6.2234375,10.5 6,10.7234375 6,11 L6,13.1265625 L3.34375,13.1265625 L3.34375,9.3421875 C3.3890625,9.3640625 3.4359375,9.3859375 3.484375,9.4046875 C3.8328125,9.5515625 4.203125,9.625 4.584375,9.625 C4.965625,9.625 5.334375,9.5515625 5.684375,9.4046875 C5.9,9.3140625 6.103125,9.1984375 6.2890625,9.059375 C6.2921875,9.0578125 6.2953125,9.0578125 6.2984375,9.059375 C6.484375,9.1984375 6.6859375,9.3140625 6.903125,9.4046875 C7.2515625,9.5515625 7.621875,9.625 8.003125,9.625 C8.384375,9.625 8.753125,9.5515625 9.103125,9.4046875 C9.31875,9.3140625 9.521875,9.1984375 9.7078125,9.059375 C9.7109375,9.0578125 9.7140625,9.0578125 9.7171875,9.059375 C9.903125,9.1984375 10.1046875,9.3140625 10.321875,9.4046875 C10.6703125,9.5515625 11.040625,9.625 11.421875,9.625 C11.803125,9.625 12.171875,9.5515625 12.521875,9.4046875 C12.56875,9.384375 12.615625,9.3640625 12.6625,9.3421875 L12.6625,13.1265625 L12.65625,13.1265625 Z M13.125,6.8078125 C13.125,7.7421875 12.359375,8.5 11.4171875,8.5 C10.7796875,8.5 10.2234375,8.1546875 9.9296875,7.6421875 C9.884375,7.5640625 9.803125,7.515625 9.7125,7.515625 L9.703125,7.515625 C9.6140625,7.515625 9.53125,7.5640625 9.4859375,7.6421875 C9.19375,8.1546875 8.6375,8.5 8,8.5 C7.3640625,8.5 6.809375,8.15625 6.515625,7.6453125 C6.46875,7.565625 6.384375,7.515625 6.2921875,7.515625 C6.2,7.515625 6.1140625,7.565625 6.06875,7.6453125 C5.7734375,8.15625 5.21875,8.5 4.5828125,8.5 C3.640625,8.5 2.875,7.7421875 2.875,6.8078125 L2.875,5.3828125 C2.875,5.378125 2.878125,5.375 2.8828125,5.375 L13.1171875,5.375 C13.121875,5.375 13.125,5.378125 13.125,5.3828125 L13.125,6.8078125 L13.125,6.8078125 Z" id="形状" fill="#FFFFFF"></path>
                        </g>
                    </g>
                </g>
            </g>
        </g>
    </g>
</svg>